<?xml version="1.0" encoding="utf-8"?>
<!-- Generator: Adobe Illustrator 24.3.0, SVG Export Plug-In . SVG Version: 6.00 Build 0)  -->
<svg version="1.1" id="Icons" xmlns="http://www.w3.org/2000/svg" xmlns:xlink="http://www.w3.org/1999/xlink" x="0px" y="0px"
	 viewBox="0 0 64 64" style="enable-background:new 0 0 64 64;" xml:space="preserve">
<style type="text/css">
	.st0{display:none;}
	.st1{display:inline;}
	.st2{display:inline;fill:#231F20;}
</style>
<path id="add" class="st0" d="M48.7,34.4H34.4v14.3h-4.7V34.4H15.3v-4.7h14.3V15.3h4.7v14.3h14.3v4.8H48.7L48.7,34.4z"/>
<path id="subtract" class="st0" d="M15.4,34.4v-4.8h33.3v4.8H15.4z"/>
<path id="menu" class="st0" d="M14.3,28.6c1-1,2.1-1.5,3.4-1.5s2.4,0.5,3.4,1.5s1.5,2.1,1.5,3.4S22,34.4,21,35.4s-2.1,1.5-3.4,1.5
	s-2.4-0.5-3.4-1.5s-1.5-2.1-1.5-3.4S13.3,29.6,14.3,28.6z M28.5,28.6c1-1,2.1-1.5,3.4-1.5c1.3,0,2.4,0.5,3.4,1.5s1.5,2.1,1.5,3.4
	s-0.5,2.4-1.5,3.4s-2.1,1.5-3.4,1.5s-2.4-0.5-3.4-1.5S27,33.3,27,32C27.1,30.7,27.6,29.6,28.5,28.6z M43,28.6c1-1,2.1-1.5,3.4-1.5
	c1.3,0,2.4,0.5,3.4,1.5s1.5,2.1,1.5,3.4s-0.5,2.4-1.5,3.4s-2.1,1.5-3.4,1.5c-1.3,0-2.4-0.5-3.4-1.5s-1.5-2.1-1.5-3.4
	S42,29.6,43,28.6z"/>
<path id="help" class="st0" d="M15.1,15.1c4.7-4.7,10.3-7,16.9-7s12.2,2.3,16.9,7s7,10.3,7,16.9s-2.3,12.2-7,16.9s-10.3,7-16.9,7
	s-12.2-2.3-16.9-7s-7-10.3-7-16.9S10.5,19.8,15.1,15.1z M18.5,45.5c3.8,3.8,8.3,5.7,13.5,5.7s9.7-1.9,13.5-5.7s5.7-8.3,5.7-13.5
	s-1.9-9.7-5.7-13.5s-8.3-5.7-13.5-5.7s-9.7,1.9-13.5,5.7s-5.7,8.3-5.7,13.5S14.7,41.7,18.5,45.5z M25.3,20.5
	c1.9-1.9,4.1-2.8,6.7-2.8s4.9,0.9,6.7,2.8c1.9,1.9,2.8,4.1,2.8,6.7c0,2-1.2,4.1-3.6,6.2c-2.4,2.1-3.6,4.1-3.6,5.8h-4.7
	c0-1.7,0.4-3.2,1.1-4.4s1.6-2.1,2.5-2.7c0.9-0.6,1.7-1.3,2.5-2.1c0.7-0.8,1.1-1.8,1.1-2.8c0-1.3-0.5-2.4-1.5-3.3s-2.1-1.4-3.4-1.4
	c-1.3,0-2.4,0.5-3.4,1.4s-1.5,2-1.5,3.3h-4.7C22.5,24.6,23.4,22.3,25.3,20.5z M29.6,46.3v-4.8h4.7v4.8H29.6z"/>
<path id="cancel" class="st0" d="M48.7,18.7L35.4,32l13.3,13.3l-3.4,3.4L32,35.4L18.7,48.7l-3.4-3.4L28.6,32L15.3,18.7l3.4-3.4
	L32,28.6l13.3-13.3L48.7,18.7z"/>
<path id="down-arrow" class="st0" d="M21,23.1l11,11l11-11l3.4,3.4L32,40.9L17.7,26.5L21,23.1z"/>
<path id="up-arrow" class="st0" d="M43,40.9l-11-11l-11,11l-3.4-3.4L32,23.1l14.3,14.4L43,40.9z"/>
<path id="default" class="st0" d="M15.1,15.1c4.7-4.7,10.3-7,16.9-7s12.2,2.3,16.9,7s7,10.3,7,16.9s-2.3,12.2-7,16.9s-10.3,7-16.9,7
	s-12.2-2.3-16.9-7s-7-10.3-7-16.9S10.5,19.8,15.1,15.1z M32,51.2c4.5,0,8.4-1.3,11.8-4l-26.9-27c-2.7,3.4-4,7.3-4,11.8
	c0,5.2,1.9,9.7,5.7,13.5C22.3,49.3,26.8,51.2,32,51.2z M47.1,43.8c2.7-3.4,4-7.3,4-11.8c0-5.2-1.9-9.7-5.7-13.5s-8.3-5.7-13.5-5.7
	c-4.5,0-8.4,1.3-11.8,4L47.1,43.8z"/>
<path id="edit_1_" class="st0" d="M12,43.8l24.6-24.6l8.4,8.4L20.4,52H12V43.8z M51.3,21l-4.1,4.1l-8.4-8.4l4.1-4.1
	c0.4-0.4,0.9-0.7,1.6-0.7s1.1,0.2,1.6,0.7l5.2,5.2c0.4,0.4,0.7,0.9,0.7,1.6C52,20,51.8,20.6,51.3,21z"/>
<g id="Tick" class="st0">
	<path class="st1" d="M24.3,41.4L49.6,16l3.4,3.4L24.3,48L11,34.7l3.2-3.4L24.3,41.4z"/>
</g>
<g id="Copy" class="st0">
	<rect x="13.9" y="35.5" class="st2" width="24.9" height="3.8"/>
	<rect x="13.9" y="50.3" class="st2" width="24.9" height="3.8"/>
	<rect x="13.9" y="43" class="st2" width="24.9" height="3.7"/>
	<path class="st2" d="M42.3,1.4H22.8c-3,0-5.3,2.4-5.3,5.3v5.7h-6.3c-3,0-5.3,2.4-5.3,5.3v39.7c0,3,2.3,5.3,5.3,5.3h29.9
		c3,0,5.3-2.4,5.3-5.3v-5.7h6.3c3,0,5.3-2.4,5.3-5.3V17L42.3,1.4z M42.2,6.4l10.2,10.3h-6.8c-1.9,0-3.5-1.6-3.5-3.5L42.2,6.4
		L42.2,6.4z M42.7,57.3c0,0.8-0.7,1.6-1.6,1.6h-30c-0.8,0-1.6-0.7-1.6-1.6V17.5c0-0.8,0.7-1.6,1.6-1.6h15.7v8.3
		c0,3.9,3.2,7.2,7.2,7.2h8.6L42.7,57.3L42.7,57.3z M30.5,24.3v-6.9l10.2,10.3h-6.8C32.2,27.6,30.5,26.1,30.5,24.3z M54.3,46.5
		c0,0.8-0.7,1.6-1.6,1.6h-6.4V28L30.7,12.2h-9.5V6.6c0-0.8,0.7-1.6,1.6-1.6h15.7v8.3c0,3.9,3.2,7.2,7.2,7.2h8.6L54.3,46.5L54.3,46.5
		z"/>
</g>
<path id="Search" class="st0" d="M41,37.4l11.9,11.9l-3.6,3.6L37.4,41v-1.9l-0.7-0.7c-2.8,2.5-6.2,3.7-10.1,3.7c-4.3,0-8-1.5-11-4.5
	s-4.5-6.6-4.5-11c0-4.3,1.5-8,4.5-11s6.7-4.5,11-4.5s8,1.5,11,4.5s4.5,6.7,4.5,11c0,3.9-1.2,7.2-3.7,10.1l0.7,0.7L41,37.4L41,37.4z
	 M19.1,34.3c2.1,2.1,4.6,3.1,7.6,3.1s5.5-1,7.6-3.1s3.1-4.6,3.1-7.6s-1-5.5-3.1-7.6S29.7,16,26.7,16s-5.5,1-7.6,3.1S16,23.7,16,26.7
	C15.9,29.7,17,32.2,19.1,34.3z"/>
<path id="View" class="st0" d="M16,19c4.8-3.3,10.1-4.9,16-4.9s11.2,1.6,16,4.9s8.2,7.6,10.3,13c-2.1,5.4-5.5,9.7-10.3,13
	s-10.1,4.9-16,4.9S20.8,48.3,16,45S7.8,37.4,5.7,32C7.8,26.6,11.2,22.3,16,19z M23.5,40.5c2.4,2.4,5.2,3.5,8.5,3.5s6.1-1.2,8.5-3.5
	c2.4-2.4,3.5-5.2,3.5-8.5s-1.2-6.1-3.5-8.5C38.1,21.2,35.3,20,32,20s-6.1,1.2-8.5,3.5C21.2,25.9,20,28.7,20,32S21.2,38.1,23.5,40.5z
	 M27,27c1.4-1.4,3.1-2.1,5-2.1c1.9,0,3.6,0.7,5,2.1s2.1,3.1,2.1,5c0,1.9-0.7,3.6-2.1,5s-3.1,2.1-5,2.1c-1.9,0-3.6-0.7-5-2.1
	s-2.1-3.1-2.1-5C24.8,30.1,25.5,28.4,27,27z"/>
<path id="Refresh" class="st0" d="M32,46.3v-7.2l9.5,9.5L32,58.3v-7.2c-5.2,0-9.7-1.9-13.5-5.7s-5.7-8.3-5.7-13.5
	c0-3.7,1-7.1,3-10.2l3.5,3.5c-1.1,2-1.7,4.3-1.7,6.7c0,4,1.4,7.3,4.2,10.1C24.7,44.9,28,46.3,32,46.3z M32,12.8
	c5.2,0,9.7,1.9,13.5,5.7s5.7,8.3,5.7,13.5c0,3.7-1,7.1-3,10.2l-3.5-3.5c1.1-2,1.7-4.3,1.7-6.7c0-4-1.4-7.3-4.2-10.1
	s-6.2-4.2-10.1-4.2v7.2l-9.5-9.5L32,5.7V12.8z"/>
<path id="Back" class="st0" d="M51.2,29.6v4.7H22l13.3,13.4L32,51.2L12.8,32L32,12.8l3.4,3.4L22,29.6H51.2z"/>
<path id="List" class="st0" d="M10.9,15.1c0.7-0.7,1.5-1,2.5-1s1.8,0.3,2.5,1c0.7,0.7,1.1,1.5,1.1,2.6c0,1-0.4,1.9-1.1,2.6
	c-0.7,0.7-1.6,1-2.5,1c-1,0-1.8-0.3-2.5-1s-1.1-1.5-1.1-2.6C9.9,16.6,10.2,15.8,10.9,15.1z M10.9,29.4c0.7-0.7,1.5-1,2.5-1
	s1.8,0.3,2.5,1C16.7,30.1,17,31,17,32s-0.4,1.9-1.1,2.6c-0.7,0.7-1.6,1-2.5,1c-1,0-1.8-0.3-2.5-1s-1-1.6-1-2.6S10.2,30.1,10.9,29.4z
	 M10.9,43.8c0.7-0.7,1.5-1.1,2.5-1.1s1.8,0.4,2.5,1.1c0.7,0.7,1.1,1.6,1.1,2.5c0,1-0.4,1.8-1.1,2.5c-0.7,0.7-1.6,1.1-2.5,1.1
	c-1,0-1.8-0.4-2.5-1.1c-0.7-0.7-1.1-1.5-1.1-2.5C9.9,45.4,10.2,44.5,10.9,43.8z M20.6,15.3h33.5V20H20.6V15.3z M20.6,34.4v-4.7h33.5
	v4.7H20.6z M20.6,48.7V44h33.5v4.7H20.6z"/>
<path id="menu-vert" class="st0" d="M35.4,21c-1,1-2.1,1.5-3.4,1.5c-1.3,0-2.4-0.5-3.4-1.5s-1.5-2.1-1.5-3.4s0.5-2.4,1.5-3.4
	s2.1-1.5,3.4-1.5s2.4,0.5,3.4,1.5s1.5,2.1,1.5,3.4C36.8,18.9,36.3,20.1,35.4,21z M28.6,28.6c1-1,2.1-1.5,3.4-1.5s2.4,0.5,3.4,1.5
	s1.5,2.1,1.5,3.4s-0.5,2.4-1.5,3.4s-2.1,1.5-3.4,1.5c-1.3,0-2.4-0.5-3.4-1.5s-1.5-2.1-1.5-3.4C27.2,30.7,27.7,29.6,28.6,28.6z
	 M28.6,43c1-1,2.1-1.5,3.4-1.5s2.4,0.5,3.4,1.5s1.5,2.1,1.5,3.4c0,1.3-0.5,2.4-1.5,3.4s-2.1,1.5-3.4,1.5c-1.3,0-2.4-0.5-3.4-1.5
	s-1.5-2.1-1.5-3.4C27.2,45.1,27.7,44,28.6,43z"/>
<path id="logout" class="st0" d="M48.7,10.5c1.3,0,2.4,0.5,3.4,1.5s1.5,2.1,1.5,3.4v33.4c0,1.3-0.5,2.4-1.5,3.4s-2.1,1.5-3.4,1.5
	H15.3c-1.3,0-2.5-0.5-3.4-1.5c-0.9-1-1.4-2.1-1.4-3.4v-9.5h4.8v9.5h33.4V15.3H15.3v9.5h-4.8v-9.5c0-1.3,0.5-2.4,1.4-3.4
	s2.1-1.5,3.4-1.5h33.4V10.5z M27.4,40.6l6.2-6.3H10.5v-4.7h23.1l-6.2-6.3l3.4-3.4l12,12l-12,12L27.4,40.6z"/>
<path id="info" class="st0" d="M15.1,15.1c4.7-4.7,10.3-7,16.9-7s12.2,2.3,16.9,7s7,10.3,7,16.9s-2.3,12.2-7,16.9s-10.3,7-16.9,7
	s-12.2-2.3-16.9-7s-7-10.3-7-16.9S10.5,19.8,15.1,15.1z M34.4,24.8V20h-4.7v4.8H34.4z M34.4,44V29.6h-4.7V44H34.4z"/>
<text transform="matrix(0.9939 0 0 1 -216.251 182.8633)" style="font-family:'MaterialIcons-Regular'; font-size:57.3631px;">chatimageforwardpanoramareorderarticle</text>
<path id="tick_1_" class="st0" d="M24.3,41.3L49.6,16l3.4,3.4L24.3,48L11,34.7l3.4-3.4L24.3,41.3z"/>
<g id="save" class="st0">
	<path class="st1" d="M35.2,20.6h5.2c0.3,0,0.6-0.3,0.6-0.6V9.9c0-0.3-0.3-0.6-0.6-0.6h-5.2c-0.3,0-0.6,0.3-0.6,0.6V20
		C34.6,20.3,34.9,20.6,35.2,20.6z"/>
	<path class="st1" d="M53.4,13.9l-6.1-6.1c-0.2-0.2-0.5-0.3-0.8-0.3h-1.8c-0.6,0-1.1,0.5-1.1,1.1V22h-23V8.6c0-0.6-0.5-1.1-1.1-1.1
		h-7.9c-0.6,0-1.1,0.2-1.1,1.1v45.7c0,1.6,0.5,2.1,1.1,2.1h41.1c0.6,0,1.1-0.5,1.1-2.1V14.7C53.7,14.2,53.6,14.1,53.4,13.9z
		 M49.2,50.9c0,0.6-0.5,1.1-1.1,1.1H16c-0.6,0-1.1-0.5-1.1-1.1V28.2c0-0.6,0.5-1.1,1.1-1.1h32c0.6,0,1.1,0.5,1.1,1.1v22.7H49.2z"/>
	<rect x="18.5" y="30.6" class="st2" width="27" height="3.7"/>
	<rect x="18.5" y="44.9" class="st2" width="27" height="3.7"/>
	<rect x="18.5" y="37.8" class="st2" width="27" height="3.6"/>
</g>
<path id="reset" class="st0" d="M32,13c5.3,0,9.8,1.9,13.6,5.6c3.7,3.7,5.6,8.2,5.6,13.4c0,5.3-1.9,9.8-5.7,13.6
	c-3.8,3.7-8.3,5.6-13.5,5.6s-9.7-1.9-13.5-5.6c-3.8-3.7-5.7-8.3-5.7-13.6h4.8c0,4,1.4,7.3,4.2,10.1S28,46.4,32,46.4
	s7.3-1.4,10.1-4.2s4.2-6.2,4.2-10.1c0-4-1.4-7.3-4.2-10.1s-6.2-4.2-10.1-4.2v9.6l-12-12l12-12C32,3.4,32,13,32,13z"/>
<path id="article" d="M52,11.9c0.9,0.9,1.4,2.1,1.4,3.4v33.4c0,1.3-0.5,2.5-1.4,3.4c-0.9,0.9-2.1,1.4-3.4,1.4H15.4
	c-1.3,0-2.5-0.5-3.4-1.4c-0.9-0.9-1.4-2.1-1.4-3.4V15.3c0-1.3,0.5-2.5,1.4-3.4c0.9-0.9,2.1-1.4,3.4-1.4h33.2
	C49.9,10.5,51.1,11,52,11.9z M43.9,20H20.1v4.8h23.8V20z M43.9,29.6H20.1v4.7h23.8V29.6z M36.8,39.2H20.1V44h16.7V39.2z"/>
<path id="photo" d="M53.4,48.7c0,1.3-0.5,2.4-1.4,3.4c-1,1-2.1,1.5-3.3,1.5H15.4c-1.3,0-2.4-0.5-3.3-1.5c-1-1-1.4-2.1-1.4-3.4V15.3
	c0-1.3,0.5-2.4,1.4-3.4c1-1,2.1-1.5,3.3-1.5h33.2c1.3,0,2.4,0.5,3.3,1.5c1,1,1.4,2.1,1.4,3.4V48.7z M23.6,35.6l-8.2,10.8h33.2
	L37.9,32l-8.2,10.8L23.6,35.6z"/>
<path id="video" d="M53.4,10.5c1.3,0,2.5,0.5,3.4,1.4c0.9,0.9,1.4,2.1,1.4,3.4L58.1,44c0,1.3-0.5,2.4-1.4,3.3
	c-0.9,0.9-2,1.4-3.3,1.4H41.5v4.8H22.5v-4.8H10.6c-1.3,0-2.5-0.4-3.4-1.3c-0.9-0.9-1.4-2-1.4-3.4V15.3c0-1.3,0.5-2.5,1.4-3.4
	c0.9-0.9,2.1-1.4,3.4-1.4H53.4z M53.4,44V15.3H10.6V44H53.4z M41.5,29.6l-16.6,9.5V20L41.5,29.6z"/>
<polygon id="up-votes" points="32,13 12.8,32 22.5,32 22.5,51 41.5,51 41.5,32 51.2,32 "/>
<path id="comments" d="M51,8.1c1.3,0,2.4,0.5,3.3,1.4c0.9,0.9,1.4,2,1.4,3.3v28.7c0,1.3-0.5,2.4-1.4,3.4c-0.9,1-2,1.5-3.3,1.5H17.7
	l-9.5,9.5v-43c0-1.3,0.5-2.4,1.4-3.3c0.9-0.9,2-1.4,3.3-1.4H51z M46.3,22.5v-4.8H17.7v4.8H46.3z M17.7,24.8v4.8h28.5v-4.8H17.7z
	 M36.8,36.8V32h-19v4.8H36.8z"/>
</svg>
