<svg id="Layer_13" data-name="Layer 13" xmlns="http://www.w3.org/2000/svg" viewBox="0 0 490.6 436.9"><defs><style>.cls-1{fill:#61dafb;}.cls-2{fill:#fff;}.cls-3{fill:#ff4500;}</style></defs><title>logo</title><path class="cls-1" d="M666.3,296.5c0-32.5-40.7-63.3-103.1-82.4,14.4-63.6,8-114.2-20.2-130.4a43.84,43.84,0,0,0-22.4-5.6v22.3A23.16,23.16,0,0,1,532,103c13.6,7.8,19.5,37.5,14.9,75.7-1.1,9.4-2.9,19.3-5.1,29.4a484.62,484.62,0,0,0-63.5-10.9,487.8,487.8,0,0,0-41.6-50c32.6-30.3,63.2-46.9,84-46.9V78c-27.5,0-63.5,19.6-99.9,53.6-36.4-33.8-72.4-53.2-99.9-53.2v22.3c20.7,0,51.4,16.5,84,46.6a472.31,472.31,0,0,0-41.3,49.9,467,467,0,0,0-63.6,11c-2.3-10-4-19.7-5.2-29-4.7-38.2,1.1-67.9,14.6-75.8,3-1.8,6.9-2.6,11.5-2.6V78.5a44.59,44.59,0,0,0-22.6,5.6c-28.1,16.2-34.4,66.7-19.9,130.1-62.2,19.2-102.7,49.9-102.7,82.3s40.7,63.3,103.1,82.4c-14.4,63.6-8,114.2,20.2,130.4,6.5,3.8,14.1,5.6,22.5,5.6,27.5,0,63.5-19.6,99.9-53.6,36.4,33.8,72.4,53.2,99.9,53.2a44.59,44.59,0,0,0,22.6-5.6c28.1-16.2,34.4-66.7,19.9-130.1,62-19.1,102.5-49.9,102.5-82.3h0ZM536.1,229.8c-3.7,12.9-8.3,26.2-13.5,39.5-4.1-8-8.4-16-13.1-24s-9.5-15.8-14.4-23.4c14.2,2.1,27.9,4.7,41,7.9h0ZM490.3,336.3c-7.8,13.5-15.8,26.3-24.1,38.2-14.9,1.3-30,2-45.2,2s-30.2-.7-45-1.9q-12.45-17.85-24.2-38-11.4-19.65-20.8-39.8c6.2-13.4,13.2-26.8,20.7-39.9,7.8-13.5,15.8-26.3,24.1-38.2,14.9-1.3,30-2,45.2-2s30.2,0.7,45,1.9q12.45,17.85,24.2,38,11.4,19.65,20.8,39.8c-6.3,13.4-13.2,26.8-20.7,39.9h0Zm32.3-13c5.4,13.4,10,26.8,13.8,39.8-13.1,3.2-26.9,5.9-41.2,8,4.9-7.7,9.8-15.6,14.4-23.7s8.9-16.1,13-24.1h0ZM421.2,430a412.26,412.26,0,0,1-27.8-32c9,0.4,18.2.7,27.5,0.7s18.7-.2,27.8-0.7A390.32,390.32,0,0,1,421.2,430Zm-74.4-58.9c-14.2-2.1-27.9-4.7-41-7.9,3.7-12.9,8.3-26.2,13.5-39.5,4.1,8,8.4,16,13.1,24S341.9,363.5,346.8,371.1ZM420.7,163a412.27,412.27,0,0,1,27.8,32c-9-.4-18.2-0.7-27.5-0.7s-18.7.2-27.8,0.7A390.33,390.33,0,0,1,420.7,163Zm-74,58.9c-4.9,7.7-9.8,15.6-14.4,23.7s-8.9,16-13,24c-5.4-13.4-10-26.8-13.8-39.8,13.1-3.1,26.9-5.8,41.2-7.9h0ZM256.2,347.1c-35.4-15.1-58.3-34.9-58.3-50.6s22.9-35.6,58.3-50.6c8.6-3.7,18-7,27.7-10.1a480.29,480.29,0,0,0,22.5,60.9,473.51,473.51,0,0,0-22.2,60.6c-9.9-3.1-19.3-6.5-28-10.2h0ZM310,490c-13.6-7.8-19.5-37.5-14.9-75.7,1.1-9.4,2.9-19.3,5.1-29.4a484.62,484.62,0,0,0,63.5,10.9,487.8,487.8,0,0,0,41.6,50c-32.6,30.3-63.2,46.9-84,46.9A23.87,23.87,0,0,1,310,490h0Zm237.2-76.2c4.7,38.2-1.1,67.9-14.6,75.8-3,1.8-6.9,2.6-11.5,2.6-20.7,0-51.4-16.5-84-46.6a472.31,472.31,0,0,0,41.3-49.9,467,467,0,0,0,63.6-11A280,280,0,0,1,547.2,413.8Zm38.5-66.7c-8.6,3.7-18,7-27.7,10.1a480.29,480.29,0,0,0-22.5-60.9,473.52,473.52,0,0,0,22.2-60.6c9.9,3.1,19.3,6.5,28.1,10.2,35.4,15.1,58.3,34.9,58.3,50.6s-23,35.6-58.4,50.6h0Z" transform="translate(-175.7 -78)"/><path class="cls-1" d="M520.5,78.1" transform="translate(-175.7 -78)"/><path class="cls-2" d="M611.38,243.65a41.84,41.84,0,0,0-70.93-30.12c-28.53-18.83-67.08-31-109.8-32.49L454,107.26l63.23,14.88c0,0.31,0,.62,0,0.94a34.28,34.28,0,1,0,2.35-12.43l-68.16-16a5.84,5.84,0,0,0-6.93,3.94L418.4,180.9c-44.7.53-85.22,12.65-115,32a41.85,41.85,0,1,0-49.66,66.78,75.68,75.68,0,0,0-1.22,13.47c0,41.85,34.64,78.43,85.85,97.74,53.35,19.36,128.14,17.91,166.21,0,51.22-19.31,85.85-55.88,85.85-97.73a75.63,75.63,0,0,0-1.08-12.67A41.9,41.9,0,0,0,611.38,243.65ZM340,269.32a24.93,24.93,0,1,1,26.91,26.86A25,25,0,0,1,340,269.32Zm142.74,75.94c-12.56,12.56-32.28,18.66-60.28,18.66l-0.21,0-0.21,0c-28,0-47.73-6.1-60.28-18.66A5.86,5.86,0,0,1,370,337c10.23,10.24,27.24,15.22,52,15.22l0.21,0,0.21,0c24.73,0,41.74-5,52-15.22A5.86,5.86,0,0,1,482.72,345.26Zm-3-49a24.92,24.92,0,1,1,24.91-24.91A24.94,24.94,0,0,1,479.74,296.27Z" transform="translate(-175.7 -78)"/><path class="cls-3" d="M340,269.32a24.93,24.93,0,1,1,26.91,26.86A25,25,0,0,1,340,269.32Zm139.76,26.95a24.92,24.92,0,1,1,24.91-24.91A24.94,24.94,0,0,1,479.74,296.27Z" transform="translate(-175.7 -78)"/></svg>